<svg width="48" height="61" viewBox="0 0 48 61" fill="none" xmlns="http://www.w3.org/2000/svg">
<path d="M27.7648 61C26.3024 61 25.0229 60.8008 24.0175 60.3027C22.9208 60.8008 21.6412 61 20.2703 61C16.3402 61 12.0446 59.2069 8.66294 56.0193C4.36731 52.0347 1.53403 45.9582 0.345878 38.4871C-0.842273 30.7172 1.25984 26.1349 3.17916 23.7442C5.64686 20.6561 9.21132 18.8631 13.4155 18.8631C17.437 18.8631 21.367 20.5565 24.0175 23.3457C26.668 20.5565 30.598 18.8631 34.6195 18.8631C38.8237 18.8631 42.4796 20.5565 44.8559 23.7442C46.7752 26.2345 48.7859 30.8168 47.6892 38.4871C46.5924 45.9582 43.6677 52.0347 39.3721 56.0193C35.9904 59.1073 31.7862 61 27.7648 61ZM24.0175 55.82C24.3831 55.82 24.7487 55.9197 25.0229 56.1189C25.5713 56.5173 26.5766 56.7166 27.7648 56.7166C32.3346 56.7166 41.5656 52.732 43.8505 37.5906C44.5817 32.7095 43.9419 28.8245 41.9312 26.2345C40.1947 24.043 37.6356 22.8477 34.6195 22.8477C30.8722 22.8477 27.3078 24.6407 25.5713 27.5295C25.2057 28.1272 24.6573 28.4261 24.0175 28.4261C23.3777 28.4261 22.738 28.0276 22.4638 27.5295C20.7272 24.7403 17.1628 22.8477 13.4155 22.8477C10.3995 22.8477 7.74898 24.043 6.10384 26.2345C4.09313 28.8245 3.45335 32.7095 4.18452 37.5906C5.18988 44.1652 9.85109 56.7166 20.2703 56.7166C21.4584 56.7166 22.4638 56.5173 23.0122 56.1189C23.2863 55.9197 23.6519 55.82 24.0175 55.82ZM17.9854 15.3766C16.7058 15.3766 13.5069 15.0777 11.3134 11.8901C8.75434 8.20432 9.02853 2.62591 9.11992 1.9286C9.11992 1.33092 9.39411 0.733231 9.85109 0.434387C10.3081 0.0359292 10.8565 -0.0636856 11.4048 0.0359289C11.9532 0.135543 16.98 1.33092 19.5391 5.11627C22.3724 9.30008 20.5445 13.8823 20.4531 14.0816C20.1789 14.6793 19.6305 15.1773 18.9907 15.2769C18.8993 15.3766 18.5337 15.3766 17.9854 15.3766ZM12.9586 5.01665C13.1414 6.51087 13.5069 8.20432 14.3295 9.39969C15.1521 10.5951 16.3402 10.9935 17.1628 11.1928C17.2542 10.2962 17.2542 8.90162 16.4316 7.70625C15.6091 6.41126 14.2381 5.61434 12.9586 5.01665ZM24.0175 18.9627C23.8347 18.9627 23.6519 18.9627 23.4691 18.8631C22.4638 18.5642 21.9154 17.3689 22.1896 16.2731L24.9315 6.41126C25.2057 5.3155 26.3024 4.71781 27.3078 5.01665C28.3131 5.3155 28.8615 6.51087 28.5873 7.60663L25.8454 17.4685C25.5713 18.365 24.8401 18.9627 24.0175 18.9627Z" fill="#5E9B50"/>
</svg>
