<svg width="49" height="51" viewBox="0 0 49 51" fill="none" xmlns="http://www.w3.org/2000/svg">
<path d="M2.09595 11.1389C2.09595 32.0489 18.2754 49 38.2337 49C39.8936 49 41.5275 48.8828 43.1278 48.6559C45.3982 48.3336 46.9566 46.204 46.9566 43.8039V37.0972C46.9566 34.8496 45.5836 32.8539 43.5485 32.1432L35.7018 29.4028C33.7068 28.7062 31.5674 29.9363 31.0575 32.074C30.3769 34.9266 26.9861 35.9105 25.0016 33.8313L16.5741 25.0021C14.5897 22.9228 15.5288 19.3705 18.2515 18.6574C20.2919 18.123 21.466 15.8818 20.8011 13.7914L18.1856 5.5708C17.5071 3.43836 15.6024 2 13.4569 2H7.05564C4.76466 2 2.73192 3.63281 2.42455 6.01137C2.20785 7.68818 2.09595 9.39984 2.09595 11.1389Z" stroke="#5E9B50" stroke-width="3" stroke-linejoin="round"/>
</svg>
