<svg width="76" height="76" viewBox="0 0 76 76" fill="none" xmlns="http://www.w3.org/2000/svg">
<path d="M38 75.1687C19.1781 75.1687 0.0593262 71.1312 0.0593262 63.4125C0.0593262 56.525 14.7843 53.675 21.0781 52.7843H21.3156C22.2062 52.7843 22.9781 53.4375 23.0968 54.3281C23.1562 54.8031 23.0375 55.2781 22.7406 55.6343C22.4437 55.9906 22.0281 56.2875 21.5531 56.3468C8.4312 58.2468 3.56245 61.6906 3.56245 63.4718C3.56245 66.7968 16.9812 71.6656 37.9406 71.6656C58.9 71.6656 72.3187 66.7968 72.3187 63.4718C72.3187 61.6906 67.3906 58.2468 54.15 56.3468C53.6749 56.2875 53.2593 56.0499 52.9625 55.6343C52.6656 55.2781 52.5468 54.8031 52.6062 54.3281C52.725 53.4375 53.4968 52.7843 54.3875 52.7843H54.625C60.9781 53.675 75.8218 56.525 75.8218 63.4125C75.8812 71.0718 56.8218 75.1687 38 75.1687ZM36.7531 62.5812C35.8625 61.75 15.3187 42.3343 15.3187 23.275C15.3187 10.8062 25.4718 0.653076 37.9406 0.653076C50.4093 0.653076 60.5625 10.8062 60.5625 23.275C60.5625 41.8 40.0187 61.6906 39.1281 62.5218L37.9406 63.7093L36.7531 62.5812ZM38 4.21558C27.4906 4.21558 18.9406 12.7656 18.9406 23.275C18.9406 38.1781 33.4875 54.15 38 58.7218C42.5718 54.0312 57.1187 37.7625 57.1187 23.275C57.0593 12.825 48.5093 4.21558 38 4.21558ZM38 33.3687C32.0625 33.3687 27.2531 28.5593 27.2531 22.6218C27.2531 16.6843 32.0625 11.875 38 11.875C43.9375 11.875 48.7468 16.6843 48.7468 22.6218C48.7468 28.5593 43.9375 33.3687 38 33.3687ZM38 15.4375C34.0218 15.4375 30.8156 18.6437 30.8156 22.6218C30.8156 26.6 34.0218 29.8062 38 29.8062C41.9781 29.8062 45.1843 26.6 45.1843 22.6218C45.1843 18.6437 41.9187 15.4375 38 15.4375Z" fill="#5E9B50"/>
</svg>
