<svg width="65" height="57" viewBox="0 0 65 57" fill="none" xmlns="http://www.w3.org/2000/svg">
<path d="M32.5 46.7188C40.3528 46.7188 46.7188 40.3528 46.7188 32.5C46.7188 24.6472 40.3528 18.2812 32.5 18.2812C24.6472 18.2812 18.2812 24.6472 18.2812 32.5C18.2812 40.3528 24.6472 46.7188 32.5 46.7188ZM32.5 20.3125C39.2305 20.3125 44.6875 25.7695 44.6875 32.5C44.6875 39.2305 39.2305 44.6875 32.5 44.6875C25.7695 44.6875 20.3125 39.2305 20.3125 32.5C20.3125 25.7695 25.7695 20.3125 32.5 20.3125Z" fill="#5E9B50"/>
<path d="M60.9375 8.125C60.9375 8.125 53.8281 8.125 52.8125 8.125C51.7969 8.125 51.2058 8.12906 49.9759 6.89914C48.7459 5.66922 44.3513 1.27461 44.3513 1.27461C44.1604 1.08367 42.9914 0 41.6406 0C40.2898 0 24.8351 0 23.3594 0C21.8837 0 20.8223 1.10094 20.6314 1.29086C20.6314 1.29086 16.2378 5.68445 15.0241 6.89812C13.8105 8.1118 13.2214 8.125 12.1875 8.125V5.07812C12.1875 4.51648 11.7335 4.0625 11.1719 4.0625H5.07812C4.51648 4.0625 4.0625 4.51648 4.0625 5.07812V8.125C1.81695 8.125 0 9.94195 0 12.1875V52.8125C0 55.058 1.81695 56.875 4.0625 56.875H60.9375C63.183 56.875 65 55.058 65 52.8125V12.1875C65 9.94195 63.183 8.125 60.9375 8.125ZM6.09375 6.09375H10.1562V8.125C8.89687 8.125 7.33078 8.125 6.09375 8.125V6.09375ZM4.0625 10.1562C4.0625 10.1562 12.1875 10.1562 13.2031 10.1562C14.2188 10.1562 15.2618 9.53367 15.9524 8.84305C16.643 8.15242 21.3159 3.47953 22.0299 2.76555C22.7439 2.05156 23.8672 2.03125 23.8672 2.03125H41.1328C41.1328 2.03125 42.2236 2.01906 42.9934 2.78891C43.7633 3.55875 48.2899 8.08539 49.0476 8.84305C49.8052 9.6007 50.7812 10.1562 51.7969 10.1562C52.8125 10.1562 60.9375 10.1562 60.9375 10.1562C62.0587 10.1562 62.9688 11.0663 62.9688 12.1875V24.375H48.8587C45.8656 18.3605 39.6734 14.2188 32.5 14.2188C25.3266 14.2188 19.1344 18.3605 16.1413 24.375H2.03125V12.1875C2.03125 11.0663 2.94125 10.1562 4.0625 10.1562ZM32.5 16.25C41.4751 16.25 48.75 23.5249 48.75 32.5C48.75 41.4761 41.4751 48.75 32.5 48.75C23.5249 48.75 16.25 41.4761 16.25 32.5C16.25 23.5249 23.5249 16.25 32.5 16.25ZM60.9375 54.8438H4.0625C2.94125 54.8438 2.03125 53.9337 2.03125 52.8125V26.4062H15.2811C14.6057 28.3146 14.2188 30.3601 14.2188 32.5C14.2188 42.5963 22.4037 50.7812 32.5 50.7812C42.5963 50.7812 50.7812 42.5963 50.7812 32.5C50.7812 30.3601 50.3943 28.3146 49.7189 26.4062H62.9688V52.8125C62.9688 53.9337 62.0587 54.8438 60.9375 54.8438Z" fill="#5E9B50"/>
<path d="M32.4999 26.4062C35.8646 26.4062 38.5936 29.1352 38.5936 32.5C38.5936 33.0616 39.0476 33.5156 39.6093 33.5156C40.1709 33.5156 40.6249 33.0616 40.6249 32.5C40.6249 28.013 36.9869 24.375 32.4999 24.375C31.9382 24.375 31.4843 24.829 31.4843 25.3906C31.4843 25.9523 31.9382 26.4062 32.4999 26.4062Z" fill="#5E9B50"/>
<path d="M55.8594 20.3125C57.5423 20.3125 58.9062 18.9475 58.9062 17.2656C58.9062 15.5837 57.5423 14.2188 55.8594 14.2188C54.1765 14.2188 52.8125 15.5837 52.8125 17.2656C52.8125 18.9475 54.1765 20.3125 55.8594 20.3125ZM55.8594 16.25C56.421 16.25 56.875 16.704 56.875 17.2656C56.875 17.8273 56.421 18.2812 55.8594 18.2812C55.2977 18.2812 54.8438 17.8273 54.8438 17.2656C54.8438 16.704 55.2977 16.25 55.8594 16.25Z" fill="#5E9B50"/>
</svg>
