<?xml version="1.0" standalone="no"?>
<!DOCTYPE svg PUBLIC "-//W3C//DTD SVG 20010904//EN"
 "http://www.w3.org/TR/2001/REC-SVG-20010904/DTD/svg10.dtd">
<svg version="1.0" xmlns="http://www.w3.org/2000/svg"
 width="512.000000pt" height="512.000000pt" viewBox="0 0 512.000000 512.000000"
 preserveAspectRatio="xMidYMid meet">
<metadata>
Created by potrace 1.14, written by Peter Selinger 2001-2017
</metadata>
<g transform="translate(0.000000,512.000000) scale(0.100000,-0.100000)"
fill="#000000" stroke="none">
<path d="M4950 4629 c-36 -16 -90 -42 -120 -56 -56 -26 -173 -72 -200 -79 -8
-2 -55 -14 -104 -28 -48 -14 -114 -28 -145 -31 -31 -4 -63 -8 -71 -10 -15 -4
-61 -10 -165 -20 -72 -7 -123 -14 -150 -20 -11 -2 -44 -7 -73 -10 -29 -3 -64
-10 -78 -15 -13 -5 -24 -8 -24 -5 0 6 -181 -44 -255 -72 -100 -37 -250 -112
-323 -162 -206 -141 -304 -311 -327 -566 -18 -207 3 -299 88 -377 l39 -37 -30
-63 c-77 -161 -102 -360 -78 -611 8 -83 15 -93 21 -30 9 96 21 170 41 243 8
30 16 62 18 70 15 60 100 250 112 250 2 0 29 -18 58 -40 29 -22 56 -40 59 -40
4 0 30 -11 57 -24 98 -48 291 -67 409 -42 85 19 312 114 361 153 8 6 52 39 98
73 135 99 366 343 435 458 10 17 23 32 28 32 5 0 9 5 9 11 0 6 11 25 25 43 14
18 25 36 25 40 0 5 8 20 19 34 46 67 155 282 201 398 73 184 156 484 148 538
-4 31 -34 30 -108 -5z"/>
<path d="M1333 3953 c3 -10 8 -31 12 -48 8 -38 81 -269 99 -315 8 -19 29 -71
46 -115 32 -80 138 -301 153 -320 4 -5 36 -53 69 -105 102 -157 238 -277 392
-345 95 -42 169 -55 297 -52 107 3 121 5 180 35 42 20 72 44 88 67 l25 36 18
-38 c31 -64 67 -188 75 -260 10 -102 21 -43 18 97 -3 132 -8 159 -41 250 -13
36 -20 66 -16 68 34 12 74 48 88 79 28 62 25 249 -4 338 -61 180 -175 296
-345 350 -128 41 -415 95 -632 119 -67 8 -143 19 -202 32 -48 9 -160 60 -227
103 -71 44 -100 52 -93 24z"/>
<path d="M93 2625 l-33 -33 0 -773 c0 -599 3 -780 13 -799 25 -50 54 -55 285
-54 209 1 212 1 237 24 14 13 29 37 33 52 4 15 7 278 6 583 0 360 3 552 9 548
6 -4 7 -1 1 8 -5 8 -9 102 -10 209 -1 130 -5 203 -13 218 -24 45 -52 50 -281
50 l-213 1 -34 -34z"/>
<path d="M1638 2565 c-1 -1 -34 -6 -73 -9 -89 -9 -136 -15 -205 -26 -30 -5
-73 -12 -95 -15 -38 -6 -78 -14 -232 -51 -38 -9 -102 -27 -143 -40 -121 -39
-112 8 -113 -615 l0 -529 27 -34 c28 -37 36 -40 166 -56 151 -19 227 -51 855
-355 133 -64 462 -218 580 -270 94 -42 221 -87 272 -96 53 -10 250 -7 328 6
65 10 312 46 350 51 22 3 51 7 65 10 29 7 50 10 105 18 64 9 106 16 160 26 79
15 254 39 325 45 36 3 88 13 115 22 59 18 181 82 245 128 25 18 134 91 242
164 281 187 398 288 428 366 31 82 22 131 -31 154 l-38 17 40 48 c45 55 54 82
45 131 -15 78 -115 144 -228 149 -147 8 -342 -78 -473 -207 -36 -35 -125 -97
-180 -124 -143 -72 -439 -118 -750 -117 -215 0 -314 21 -521 107 -71 30 -144
60 -161 67 -46 17 -41 27 15 33 52 5 335 0 422 -7 30 -3 118 -7 195 -10 199
-8 338 -17 354 -22 8 -3 54 -7 101 -11 108 -7 169 11 234 68 53 47 116 164
123 231 13 118 -108 234 -297 285 -87 23 -202 51 -240 57 -19 3 -44 7 -55 10
-11 2 -40 7 -65 11 -25 4 -52 9 -60 10 -13 3 -51 7 -180 19 -19 2 -78 7 -130
11 -52 3 -115 8 -140 11 -43 5 -55 7 -125 19 -16 3 -95 38 -175 76 -80 39
-176 85 -215 101 -38 16 -79 33 -90 38 -35 16 -148 50 -165 50 -9 0 -20 3 -24
7 -3 4 -12 8 -19 9 -7 1 -57 10 -112 19 -86 15 -445 31 -457 20z"/>
</g>
</svg>
