<svg width="65" height="83" viewBox="0 0 65 83" fill="none" xmlns="http://www.w3.org/2000/svg">
<path d="M43.74 78.7015L40.3683 47.05C40.3576 46.9485 40.334 46.8493 40.2972 46.7534L38.1045 40.9571C38.0943 40.9296 38.0709 40.9107 38.0579 40.8835C38.4031 40.4524 38.6898 39.9682 38.8658 39.4168C39.1478 38.5336 39.1315 37.6266 38.8998 36.7779C46.6016 32.2398 50.1568 23.2633 49.7405 9.36691C49.7231 8.80972 49.3175 8.3323 48.7444 8.18113C48.1749 8.03992 47.5905 8.28256 47.3254 8.7711L37.5136 26.7678L39.9479 6.41369C40.0137 5.86145 39.6783 5.32494 39.1336 5.11014C38.5793 4.89991 37.9714 5.05605 37.6347 5.49872C29.2428 16.5795 26.9373 25.9565 30.583 34.1204C29.9011 34.677 29.3635 35.4071 29.0814 36.2904C28.9054 36.8417 28.8583 37.4026 28.8898 37.954C28.8635 37.9686 28.8345 37.9707 28.8092 37.9869L23.6635 41.4385C23.5779 41.4952 23.5008 41.5636 23.4336 41.639L2.34391 65.4745C1.91778 65.9562 1.96471 66.6833 2.45401 67.139L6.60804 71.0141C6.86475 71.2529 7.2138 71.3835 7.56731 71.3741C7.92117 71.3635 8.24976 71.2125 8.47419 70.9568L31.9009 44.3443L35.5673 79.6149C35.6025 79.9524 35.7823 80.2671 36.0644 80.4808C36.1871 80.5734 36.3236 80.6439 36.4693 80.6905C36.6576 80.7506 36.8581 80.7689 37.0547 80.7438L42.6852 79.995C43.3485 79.9064 43.8076 79.3422 43.74 78.7015ZM47.1526 14.4408C46.6741 24.5545 43.598 31.0558 37.6528 34.6176C37.3457 34.3003 36.9996 34.0165 36.6105 33.7787L47.1526 14.4408ZM36.803 11.1339L34.1868 33.0031C33.732 32.9711 33.2855 33.0018 32.8513 33.0822C30.0709 26.7337 31.3306 19.6519 36.803 11.1339ZM7.36448 68.3667L5.07479 66.23L12.1753 58.2056L14.4444 60.3229L7.36448 68.3667ZM16.0664 58.4806L13.8016 56.3671L24.5382 44.2328L26.7731 46.3176L16.0664 58.4806ZM28.3953 44.4753L26.4106 42.6246L29.7315 40.3965C30.0464 40.8627 30.4344 41.281 30.8976 41.6329L28.3953 44.4753ZM31.5275 37.0721C31.9347 35.7971 33.3629 35.1107 34.7119 35.5417C36.0609 35.9727 36.8269 37.3603 36.4198 38.6353C36.0127 39.9103 34.5844 40.5967 33.2354 40.1657C31.8864 39.7346 31.1204 38.3471 31.5275 37.0721ZM34.2903 42.7168C34.8713 42.6998 35.4302 42.5828 35.9569 42.3855L37.3717 46.1268L34.682 46.4839L34.2903 42.7168ZM34.9359 48.9258L37.9651 48.523L39.6818 64.6363L36.6115 65.0451L34.9359 48.9258ZM37.973 78.1467L36.8644 67.4864L39.9404 67.0769L41.0758 77.733L37.973 78.1467Z" fill="#5E9B50"/>
</svg>
