<svg width="65" height="58" viewBox="0 0 65 58" fill="none" xmlns="http://www.w3.org/2000/svg">
<path d="M57.2399 0C59.3627 0 61.0996 1.76215 61.0996 3.86667V25.0125C61.6176 25.37 62.1204 25.7375 62.6029 26.1403C63.1869 26.6286 63.258 27.4946 62.7654 28.0736C62.2728 28.6526 61.3993 28.7231 60.8152 28.2347C57.6207 25.5714 53.5325 23.9653 49.0328 23.9653C38.8806 23.9653 30.6685 32.1115 30.6685 42.1708C30.7192 42.6844 30.4704 43.1828 30.0285 43.4547C29.5867 43.7316 29.0281 43.7316 28.5862 43.4547C28.1444 43.1828 27.8955 42.6844 27.9463 42.1708C27.9463 41.8587 27.9717 41.5516 27.9869 41.2444H22.3801C23.8225 43.0116 24.696 45.2471 24.696 47.6889C24.696 53.3681 20.0236 58 14.2949 58C8.56625 58 3.89391 53.3681 3.89391 47.6889C3.89391 44.9399 5.00105 42.4528 6.77858 40.6C6.51957 40.459 6.29103 40.2878 6.04725 40.1167C5.13818 39.4622 4.33067 38.6214 3.93454 37.5389L0.156036 27.3083C-0.280724 26.1302 0.257614 24.8313 1.04988 24.1667C1.84214 23.5021 2.80708 23.2 3.81265 23.2H12.9136V15.4667C12.9136 13.0097 12.3549 12.1236 12.0604 11.8417C11.9131 11.7007 11.7912 11.6957 11.7353 11.6806C11.3595 11.6957 10.9989 11.5547 10.7297 11.2979C10.4606 11.0411 10.3082 10.6837 10.3133 10.3111V7.73333C10.3082 7.37083 10.4555 7.0184 10.7145 6.76163C10.9735 6.50486 11.329 6.35885 11.6947 6.36389C13.3706 6.36389 15.5849 6.66597 17.5046 7.975C19.4244 9.28403 20.8769 11.6755 20.8769 15.225V23.2H27.5806L32.9437 3.58472C32.9488 3.55451 32.9792 3.53438 32.9843 3.50417C33.1722 2.67847 33.5176 1.87292 34.1219 1.20833C34.7466 0.518577 35.7318 0 36.8034 0H57.2399ZM57.2399 2.57778H36.8034C36.4632 2.57778 36.2549 2.6533 36.0315 2.9C35.808 3.1467 35.615 3.59479 35.5033 4.10833C35.4932 4.13351 35.4779 4.16372 35.4627 4.18889L29.8152 24.8111C29.668 25.38 29.1499 25.7778 28.5557 25.7778H19.983C19.6834 25.8835 19.3482 25.8835 19.0485 25.7778H14.7825C14.4829 25.8835 14.1477 25.8835 13.848 25.7778H3.81265C3.40128 25.7778 2.91374 25.9741 2.71567 26.1403C2.5176 26.3064 2.54808 26.1906 2.63441 26.4222L6.37228 36.6528C6.49417 36.98 7.00203 37.5993 7.59116 38.0222C8.18027 38.4451 8.87605 38.6667 9.13506 38.6667H28.2713C29.9625 28.8087 38.6114 21.2667 49.0328 21.2667C52.4355 21.2667 55.6452 22.0672 58.4994 23.4819V3.86667C58.4994 3.14167 57.9407 2.57778 57.2399 2.57778ZM54.8427 5.15556C55.4623 5.27135 55.9093 5.8151 55.8991 6.44444V18.0444C55.8991 18.7543 55.3151 19.3333 54.599 19.3333H35.2189C34.8177 19.3333 34.4368 19.147 34.193 18.8349C33.9442 18.5177 33.8578 18.1099 33.9594 17.7222L37.1285 6.12222C37.2758 5.5533 37.7938 5.15556 38.388 5.15556H54.599C54.6396 5.15556 54.6802 5.15556 54.7209 5.15556C54.7615 5.15556 54.8021 5.15556 54.8427 5.15556ZM53.2988 7.73333H39.3631L36.8847 16.7556H53.2988V7.73333ZM13.0761 9.26389V9.425C13.3656 9.57101 13.6398 9.63142 13.9293 9.90833C14.9349 10.8649 15.6763 12.5767 15.6763 15.4667V23.2H18.1141V15.225C18.1141 12.3401 17.1847 11.026 15.9607 10.1903C15.1228 9.61632 14.0918 9.39983 13.0761 9.26389ZM49.3984 27.0667C57.9966 27.0667 65 34.0096 65 42.5333C65 51.0571 57.9966 58 49.3984 58C40.8003 58 33.7969 51.0571 33.7969 42.5333C33.7969 34.0096 40.8003 27.0667 49.3984 27.0667ZM49.3984 29.6444C42.2071 29.6444 36.3972 35.4042 36.3972 42.5333C36.3972 49.6625 42.2071 55.4222 49.3984 55.4222C49.8454 55.4222 50.3024 55.387 50.7392 55.3417C51.176 55.2964 51.6178 55.2661 52.0393 55.1806C57.9712 53.9823 62.3997 48.7714 62.3997 42.5333C62.3997 42.0852 62.3642 41.6372 62.3185 41.2042C61.6532 34.6943 56.1378 29.6444 49.3984 29.6444ZM49.5203 35.4444C49.561 35.4545 49.6016 35.4696 49.6422 35.4847C49.7235 35.4898 49.8047 35.5049 49.886 35.525C49.9012 35.5401 49.9114 35.5502 49.9266 35.5653C53.5985 35.8523 56.5492 38.8227 56.5492 42.5333C56.5492 46.4302 53.3293 49.6222 49.3984 49.6222C45.4676 49.6222 42.2477 46.4302 42.2477 42.5333C42.2477 38.853 45.1527 35.8925 48.789 35.5653C48.8347 35.5602 48.8652 35.53 48.9109 35.525C49.0429 35.4747 49.1801 35.4495 49.3172 35.4444C49.3426 35.4444 49.3731 35.4444 49.3984 35.4444C49.4391 35.4444 49.4797 35.4444 49.5203 35.4444ZM49.4797 38.0222C49.4543 38.0222 49.4238 38.0222 49.3984 38.0222C46.8744 38.0222 44.848 40.0361 44.848 42.5333C44.848 45.0306 46.8794 47.0444 49.3984 47.0444C51.9174 47.0444 53.9489 45.0306 53.9489 42.5333C53.9489 40.0613 51.9632 38.0675 49.4797 38.0222ZM18.6829 41.2444H14.4168C14.4575 41.2545 14.4981 41.2696 14.5387 41.2847C14.62 41.2898 14.7012 41.3049 14.7825 41.325C14.7977 41.3401 14.8079 41.3502 14.8231 41.3653C18.1395 41.6472 20.7956 44.3358 20.7956 47.6889C20.7956 51.2283 17.8652 54.1333 14.2949 54.1333C10.7247 54.1333 7.7943 51.2283 7.7943 47.6889C7.7943 44.3609 10.4098 41.6875 13.6855 41.3653C13.7312 41.3602 13.7617 41.33 13.8074 41.325C13.8836 41.2898 13.9699 41.2646 14.0512 41.2444H9.90701C9.85622 41.3049 9.80544 41.3552 9.7445 41.4056C7.76891 42.8102 6.49417 45.091 6.49417 47.6889C6.49417 51.9684 9.97811 55.4222 14.2949 55.4222C18.6118 55.4222 22.0957 51.9684 22.0957 47.6889C22.0957 45.2017 20.9276 42.9814 19.0892 41.5667C18.9317 41.4861 18.7946 41.3804 18.6829 41.2444ZM14.2949 43.8222C12.1365 43.8222 10.3946 45.5441 10.3946 47.6889C10.3946 49.8337 12.1365 51.5556 14.2949 51.5556C16.4584 51.5556 18.1953 49.8286 18.1953 47.6889C18.1953 45.5491 16.4584 43.8222 14.2949 43.8222Z" fill="#5E9B50"/>
</svg>
