<svg width="59" height="76" viewBox="0 0 59 76" fill="none" xmlns="http://www.w3.org/2000/svg">
<g clip-path="url(#clip0_36_14)">
<path fill-rule="evenodd" clip-rule="evenodd" d="M25.5762 14.9478C27.2124 12.1281 29.9194 10.0607 33.1048 9.20669C33.6829 9.05172 34.2678 8.93909 34.8552 8.8682L29.9166 17.3493L33.3845 19.3683L39.3434 9.1351C40.4543 9.40583 41.531 9.82894 42.5404 10.3999C43.236 10.7934 43.8857 11.2492 44.4831 11.7587L38.1634 22.6498L41.6344 24.6635L47.2062 15.0613C47.6911 15.9208 48.0728 16.8414 48.3381 17.8059C49.1977 20.9319 48.7658 24.2712 47.1302 27.09L32.7607 51.8539C32.6858 51.4782 32.5973 51.104 32.495 50.732C31.3503 46.5694 28.5787 43.0307 24.7966 40.8913C24.1381 40.5188 23.4585 40.1941 22.7628 39.9176L28.1498 30.6338L24.6788 28.6201L18.7265 38.878C16.6078 38.6092 14.437 38.7488 12.3375 39.3117C11.9685 39.4106 11.6042 39.5219 11.2452 39.6452L25.5762 14.9478ZM50.6012 29.1038L30.8945 63.0656L30.8839 63.0595C28.7951 66.6673 25.3126 69.4831 20.9427 70.6545C12.2164 72.9939 3.18377 67.91 0.800279 59.2427C-0.393263 54.9026 0.311807 50.5049 2.40903 46.902L2.39849 46.8959L22.1052 12.9341C24.2715 9.20071 27.8477 6.47488 32.0442 5.34987C36.2407 4.22485 40.7221 4.79054 44.5033 6.92946C48.2854 9.06889 51.057 12.6076 52.2017 16.7702C53.3464 20.9327 52.768 25.3695 50.6012 29.1038ZM13.3918 43.1966C6.75919 44.9747 2.87708 51.7096 4.66385 58.207C6.45062 64.7043 13.2495 68.5758 19.8821 66.7977C26.5147 65.0196 30.3968 58.2847 28.6101 51.7873C26.8233 45.2899 20.0244 41.4184 13.3918 43.1966ZM15.4995 50.8611C13.1541 51.4899 11.8038 53.8615 12.4265 56.1259C13.0492 58.3903 15.429 59.762 17.7744 59.1333C20.1198 58.5045 21.47 56.1328 20.8473 53.8684C20.2246 51.604 17.8449 50.2323 15.4995 50.8611ZM8.56295 57.1617C7.34353 52.7274 9.99981 48.1943 14.4389 47.0043C18.878 45.8142 23.4915 48.3984 24.7109 52.8327C25.9303 57.2669 23.2741 61.8 18.835 62.9901C14.3959 64.1801 9.78237 61.596 8.56295 57.1617ZM39.9348 29.9129L33.5944 40.8397L30.1234 38.8259L36.4638 27.8991L39.9348 29.9129Z" fill="#5E9B50"/>
</g>
<defs>
<clipPath id="clip0_36_14">
<rect width="59" height="76" fill="white"/>
</clipPath>
</defs>
</svg>
