<svg width="51" height="47" viewBox="0 0 51 47" fill="none" xmlns="http://www.w3.org/2000/svg">
<path d="M25.1005 46.4859C12.6679 46.4859 0.0391083 43.9891 0.0391083 39.2156C0.0391083 34.9562 9.7656 33.1937 13.9229 32.643H14.0798C14.6681 32.643 15.1779 33.0469 15.2564 33.5977C15.2956 33.8914 15.2171 34.1852 15.021 34.4055C14.8249 34.6258 14.5504 34.8094 14.2366 34.8461C5.56909 36.0211 2.35307 38.1508 2.35307 39.2523C2.35307 41.3086 11.2167 44.3195 25.0613 44.3195C38.9058 44.3195 47.7695 41.3086 47.7695 39.2523C47.7695 38.1508 44.5143 36.0211 35.7683 34.8461C35.4545 34.8094 35.18 34.6625 34.9839 34.4055C34.7878 34.1852 34.7093 33.8914 34.7486 33.5977C34.827 33.0469 35.3368 32.643 35.9251 32.643H36.082C40.2785 33.1937 50.0835 34.9562 50.0835 39.2156C50.1227 43.9523 37.5332 46.4859 25.1005 46.4859ZM24.2769 38.7016C23.6886 38.1875 10.1186 26.1805 10.1186 14.3937C10.1186 6.68281 16.8251 0.4039 25.0613 0.4039C33.2974 0.4039 40.004 6.68281 40.004 14.3937C40.004 25.85 26.434 38.1508 25.8457 38.6648L25.0613 39.3992L24.2769 38.7016ZM25.1005 2.60703C18.1586 2.60703 12.511 7.89453 12.511 14.3937C12.511 23.6102 22.1198 33.4875 25.1005 36.3148C28.1204 33.4141 37.7293 23.3531 37.7293 14.3937C37.69 7.93124 32.0424 2.60703 25.1005 2.60703ZM25.1005 20.6359C21.1785 20.6359 18.0017 17.6617 18.0017 13.9898C18.0017 10.318 21.1785 7.34374 25.1005 7.34374C29.0225 7.34374 32.1993 10.318 32.1993 13.9898C32.1993 17.6617 29.0225 20.6359 25.1005 20.6359ZM25.1005 9.54687C22.4728 9.54687 20.3549 11.5297 20.3549 13.9898C20.3549 16.45 22.4728 18.4328 25.1005 18.4328C27.7282 18.4328 29.8461 16.45 29.8461 13.9898C29.8461 11.5297 27.689 9.54687 25.1005 9.54687Z" fill="#5E9B50"/>
</svg>
