<svg width="48" height="47" viewBox="0 0 48 47" fill="none" xmlns="http://www.w3.org/2000/svg">
<path d="M24.0236 2.2235C19.4695 2.2226 15.0322 3.57067 11.348 6.07437C7.66382 8.57807 4.92209 12.1088 3.51609 16.16C2.11008 20.2112 2.11204 24.5748 3.52168 28.625C4.93131 32.6751 7.6762 36.2036 11.3626 38.7044L12.0613 44.7926L17.5483 41.6051C19.6452 42.2139 21.8279 42.5255 24.0236 42.5294C29.7451 42.5294 35.2323 40.4037 39.278 36.6198C43.3237 32.8359 45.5966 27.7038 45.5966 22.3526C45.5966 17.0013 43.3237 11.8693 39.278 8.08536C35.2323 4.30146 29.7451 2.17569 24.0236 2.17569V2.2235Z" stroke="#5E9B50" stroke-width="3" stroke-linecap="round" stroke-linejoin="round"/>
<path d="M12.8281 25.6358L19.525 19.3723L28.3689 27.6439L35.2361 21.2211" stroke="#5E9B50" stroke-width="3" stroke-linecap="round" stroke-linejoin="round"/>
</svg>
